<svg width="70" height="70" viewBox="0 0 70 70" fill="none" xmlns="http://www.w3.org/2000/svg">
<path d="M27.4258 48.7012L32.8801 54.1554L52.2213 34.8142L32.8801 15.473L27.4258 20.9272L37.4059 30.9459L0 30.9459L0 38.6824L37.4059 38.6824L27.4258 48.7012ZM61.8919 0L7.73649 0C3.44274 0 0 3.48142 0 7.73649L0 23.2095H7.73649L7.73649 7.73649L61.8919 7.73649L61.8919 61.8919L7.73649 61.8919L7.73649 46.4189H0L0 61.8919C0 66.147 3.44274 69.6284 7.73649 69.6284L61.8919 69.6284C66.147 69.6284 69.6284 66.147 69.6284 61.8919L69.6284 7.73649C69.6284 3.48142 66.147 0 61.8919 0Z" fill="white"/>
</svg>
