<svg width="131" height="131" viewBox="0 0 131 131" fill="none" xmlns="http://www.w3.org/2000/svg">
<path d="M46.7026 93.4424C50.0927 93.4424 52.8495 96.2597 52.8495 99.7193C52.8495 103.179 50.0927 105.992 46.7026 105.992C43.3125 105.992 40.5517 103.179 40.5517 99.7193C40.5517 96.2597 43.3125 93.4424 46.7026 93.4424ZM92.3858 93.4424C95.7759 93.4424 98.5367 96.2597 98.5367 99.7193C98.5367 103.179 95.7759 105.992 92.3858 105.992C88.9957 105.992 86.239 103.179 86.239 99.7193C86.239 96.2597 88.9957 93.4424 92.3858 93.4424ZM27.8335 24.7913L28.2495 24.8312L36.6984 26.3269C38.0626 26.5672 39.0979 27.7231 39.2115 29.1318L43.1213 76.6625C43.3081 78.9412 45.1391 80.6606 47.3843 80.6606H91.683C93.7942 80.6606 95.6131 79.0531 95.9176 76.9235L99.7705 49.7483C99.9086 48.7871 99.4782 48.1118 99.2103 47.7927C98.9423 47.4779 98.3495 46.9475 97.3954 46.9475H53.7707C52.0899 46.9475 50.7257 45.5554 50.7257 43.8401C50.7257 42.1249 52.0899 40.7327 53.7707 40.7327H97.3954C99.8599 40.7327 102.202 41.8265 103.814 43.7283C105.426 45.63 106.153 48.1449 105.8 50.6391L101.943 77.8143C101.212 82.9808 96.8027 86.8754 91.683 86.8754H47.3843C41.948 86.8754 37.5063 82.7074 37.0516 77.1804L33.3408 32.0403L27.2102 30.959C25.5537 30.6648 24.4453 29.0572 24.7295 27.3668C25.0137 25.6723 26.5727 24.5577 28.2495 24.8312L27.8335 24.7913ZM85.1756 56.0485C86.8565 56.0485 88.2206 57.4406 88.2206 59.1558C88.2206 60.8711 86.8565 62.2632 85.1756 62.2632H73.9173C72.2324 62.2632 70.8722 60.8711 70.8722 59.1558C70.8722 57.4406 72.2324 56.0485 73.9173 56.0485H85.1756Z" fill="#F9F9F9"/>
</svg>