<svg width="94" height="93" viewBox="0 0 94 93" fill="none" xmlns="http://www.w3.org/2000/svg">
<path d="M46.6081 23.2094C50.8631 23.2094 54.3445 26.6908 54.3445 30.9459C54.3445 35.2009 50.8631 38.6824 46.6081 38.6824C42.353 38.6824 38.8716 35.2009 38.8716 30.9459C38.8716 26.6908 42.353 23.2094 46.6081 23.2094ZM46.6081 61.8918C57.0523 61.8918 69.0439 66.8819 69.8175 69.6283H23.3986C24.2883 66.8432 36.2025 61.8918 46.6081 61.8918ZM46.6081 15.4729C38.0592 15.4729 31.1351 22.3971 31.1351 30.9459C31.1351 39.4947 38.0592 46.4188 46.6081 46.4188C55.1569 46.4188 62.081 39.4947 62.081 30.9459C62.081 22.3971 55.1569 15.4729 46.6081 15.4729ZM46.6081 54.1553C36.2798 54.1553 15.6621 59.3388 15.6621 69.6283L15.6621 77.3648H77.554V69.6283C77.554 59.3388 56.9363 54.1553 46.6081 54.1553Z" fill="white"/>
</svg>
